# xmcd
#
# Track frame offsets: 
#        150
#        18900
#        36750
#        57435
#        76425
#        95652
#        114225
#        134700
#        154425
#        170950
#        182700
#        203025
#        223875
#        248625
#        278775
#
# Disc length: 3948 seconds
#
# Revision: 3
# Processed by: cddbd v1.5.2PL0 Copyright (c) Steve Scherf et al.
# Submitted via: ExactAudioCopy v0.99pb4
#
DISCID=df0f6a0f
DTITLE=???? - TREASURE COLLECTION
DYEAR=1999
DGENRE=New Age
TTITLE0=????????
TTITLE1=???????
TTITLE2=????
TTITLE3=???
TTITLE4=???????????
TTITLE5=??????
TTITLE6=????????
TTITLE7=??????????
TTITLE8=?????
TTITLE9=???
TTITLE10=I Love You???????
TTITLE11=??????
TTITLE12=????????
TTITLE13=??????????
TTITLE14=????
EXTD=YEAR: 1999
EXTT0=
EXTT1=
EXTT2=
EXTT3=
EXTT4=
EXTT5=
EXTT6=
EXTT7=
EXTT8=
EXTT9=
EXTT10=
EXTT11=
EXTT12=
EXTT13=
EXTT14=
PLAYORDER=
